<svg xmlns="http://www.w3.org/2000/svg" viewBox="70.04499816894531 176.5 434.9100036621094 222"> <svg xmlns="http://www.w3.org/2000/svg" xmlns:xlink="http://www.w3.org/1999/xlink" version="1.1" id="xxxx_1" x="140.0449981689453" y="246.5" viewBox="145.5 145.5 509 509" xml:space="preserve" height="82" width="82" preserveAspectRatio="xMinYMin" enable-background="new 0 0 800 800" style="overflow: visible;"><path class="st0" d="M654.5,654.5H281.6V281.6h372.9V654.5z M382.4,553.7h171.2V382.4H382.4V553.7z" style="fill: #4CAE00;"></path><path class="st1" d="M518.4,518.4H145.5V145.5h372.9V518.4z M246.3,417.6h171.3V246.4H246.3V417.6z" style="fill: #323C4B;"></path><polygon class="st0" points="545.5,281.6 545.5,382.4 553.7,382.4 553.7,553.7 382.4,553.7 382.4,382.4 385.8,382.4 385.8,281.6    281.6,281.6 281.6,654.5 654.5,654.5 654.5,281.6  " style="fill: #4CAE00;"></polygon></svg> <svg x="253.5449981689453" y="262.04" viewBox="2.049999952316284 9.649999618530273 181.41000366210938 32.540000915527344" height="32.540000915527344" width="181.41000366210938" xmlns="http://www.w3.org/2000/svg" style="overflow: visible;"><g fill="#323C4B" fill-opacity="1" style=""><path d="M10.55 34.85L2.05 34.85L2.05 9.65L14.18 9.65Q17.71 9.65 20.29 10.80Q22.86 11.95 24.26 14.09Q25.67 16.24 25.67 19.15L25.67 19.15Q25.67 22.07 24.26 24.19Q22.86 26.32 20.29 27.49Q17.71 28.66 14.18 28.66L14.18 28.66L6.77 28.66L10.55 25.02L10.55 34.85ZM10.55 12.35L10.55 25.96L6.77 22.10L13.64 22.10Q15.41 22.10 16.25 21.31Q17.10 20.52 17.10 19.15L17.10 19.15Q17.10 17.78 16.25 16.99Q15.41 16.20 13.64 16.20L13.64 16.20L6.77 16.20L10.55 12.35ZM47.48 34.85L39.92 34.85L39.92 31.36L39.35 30.42L39.35 23.80Q39.35 22.36 38.47 21.60Q37.58 20.84 35.60 20.84L35.60 20.84Q34.27 20.84 32.90 21.26Q31.54 21.67 30.56 22.39L30.56 22.39L27.97 17.03Q29.70 15.95 32.11 15.37Q34.52 14.80 36.83 14.80L36.83 14.80Q41.90 14.80 44.69 17.06Q47.48 19.33 47.48 24.26L47.48 24.26L47.48 34.85ZM34.34 35.21L34.34 35.21Q31.93 35.21 30.31 34.38Q28.69 33.55 27.86 32.17Q27.04 30.78 27.04 29.09L27.04 29.09Q27.04 27.18 28.01 25.85Q28.98 24.52 30.98 23.83Q32.98 23.15 36.04 23.15L36.04 23.15L40.14 23.15L40.14 27.07L37.33 27.07Q36.04 27.07 35.44 27.49Q34.85 27.90 34.85 28.73L34.85 28.73Q34.85 29.41 35.37 29.86Q35.89 30.31 36.79 30.31L36.79 30.31Q37.62 30.31 38.32 29.86Q39.02 29.41 39.35 28.44L39.35 28.44L40.39 30.85Q39.92 33.05 38.41 34.13Q36.90 35.21 34.34 35.21ZM54.97 42.19L54.97 42.19Q53.35 42.19 51.68 41.71Q50.00 41.22 49.00 40.43L49.00 40.43L51.70 34.85Q52.31 35.32 53.08 35.60Q53.86 35.89 54.58 35.89L54.58 35.89Q55.66 35.89 56.23 35.44Q56.81 34.99 57.17 34.09L57.17 34.09L58.00 32.00L58.57 31.21L64.87 15.16L72.58 15.16L64.48 35.24Q63.40 37.94 61.97 39.46Q60.55 40.97 58.81 41.58Q57.06 42.19 54.97 42.19ZM62.57 30.49L56.88 35.75L48.31 15.16L56.66 15.16L62.57 30.49ZM82.58 34.85L74.09 34.85L74.09 9.65L86.22 9.65Q89.75 9.65 92.32 10.80Q94.90 11.95 96.30 14.09Q97.70 16.24 97.70 19.15L97.70 19.15Q97.70 22.07 96.30 24.19Q94.90 26.32 92.32 27.49Q89.75 28.66 86.22 28.66L86.22 28.66L78.80 28.66L82.58 25.02L82.58 34.85ZM82.58 12.35L82.58 25.96L78.80 22.10L85.68 22.10Q87.44 22.10 88.29 21.31Q89.14 20.52 89.14 19.15L89.14 19.15Q89.14 17.78 88.29 16.99Q87.44 16.20 85.68 16.20L85.68 16.20L78.80 16.20L82.58 12.35ZM108.72 34.85L100.58 34.85L100.58 15.16L108.32 15.16L108.32 21.10L107.06 19.40Q107.96 17.10 109.94 15.95Q111.92 14.80 114.70 14.80L114.70 14.80L114.70 22.00Q114.16 21.92 113.74 21.89Q113.33 21.85 112.90 21.85L112.90 21.85Q111.06 21.85 109.89 22.81Q108.72 23.76 108.72 26.10L108.72 26.10L108.72 34.85ZM127.22 35.21L127.22 35.21Q123.88 35.21 121.30 33.89Q118.73 32.58 117.25 30.28Q115.78 27.97 115.78 24.98L115.78 24.98Q115.78 22.00 117.25 19.69Q118.73 17.39 121.30 16.09Q123.88 14.80 127.22 14.80L127.22 14.80Q130.57 14.80 133.16 16.09Q135.76 17.39 137.21 19.69Q138.67 22.00 138.67 24.98L138.67 24.98Q138.67 27.97 137.21 30.28Q135.76 32.58 133.16 33.89Q130.57 35.21 127.22 35.21ZM127.22 28.87L127.22 28.87Q128.12 28.87 128.84 28.44Q129.56 28.01 130.00 27.13Q130.43 26.24 130.43 24.98L130.43 24.98Q130.43 23.69 130.00 22.84Q129.56 22.00 128.84 21.56Q128.12 21.13 127.22 21.13L127.22 21.13Q126.32 21.13 125.60 21.56Q124.88 22.00 124.45 22.84Q124.02 23.69 124.02 24.98L124.02 24.98Q124.02 26.24 124.45 27.13Q124.88 28.01 125.60 28.44Q126.32 28.87 127.22 28.87ZM151.81 35.21L151.81 35.21Q148.43 35.21 145.80 33.91Q143.17 32.62 141.68 30.29Q140.18 27.97 140.18 24.98L140.18 24.98Q140.18 22.00 141.68 19.69Q143.17 17.39 145.80 16.09Q148.43 14.80 151.81 14.80L151.81 14.80Q155.41 14.80 157.97 16.34Q160.52 17.89 161.50 20.63L161.50 20.63L155.20 23.72Q154.58 22.36 153.70 21.74Q152.82 21.13 151.78 21.13L151.78 21.13Q150.88 21.13 150.10 21.56Q149.33 22.00 148.88 22.84Q148.43 23.69 148.43 24.98L148.43 24.98Q148.43 26.28 148.88 27.14Q149.33 28.01 150.10 28.44Q150.88 28.87 151.78 28.87L151.78 28.87Q152.82 28.87 153.70 28.26Q154.58 27.65 155.20 26.28L155.20 26.28L161.50 29.38Q160.52 32.11 157.97 33.66Q155.41 35.21 151.81 35.21ZM173.77 35.21L173.77 35.21Q170.39 35.21 167.76 33.91Q165.13 32.62 163.64 30.29Q162.14 27.97 162.14 24.98L162.14 24.98Q162.14 22.00 163.64 19.69Q165.13 17.39 167.76 16.09Q170.39 14.80 173.77 14.80L173.77 14.80Q177.37 14.80 179.93 16.34Q182.48 17.89 183.46 20.63L183.46 20.63L177.16 23.72Q176.54 22.36 175.66 21.74Q174.78 21.13 173.74 21.13L173.74 21.13Q172.84 21.13 172.06 21.56Q171.29 22.00 170.84 22.84Q170.39 23.69 170.39 24.98L170.39 24.98Q170.39 26.28 170.84 27.14Q171.29 28.01 172.06 28.44Q172.84 28.87 173.74 28.87L173.74 28.87Q174.78 28.87 175.66 28.26Q176.54 27.65 177.16 26.28L177.16 26.28L183.46 29.38Q182.48 32.11 179.93 33.66Q177.37 35.21 173.77 35.21Z" transform="translate(0, 0)"></path></g></svg></svg>